<?xml version="1.0" standalone="no"?>
<!DOCTYPE svg PUBLIC "-//W3C//DTD SVG 20010904//EN"
 "http://www.w3.org/TR/2001/REC-SVG-20010904/DTD/svg10.dtd">
<svg version="1.0" xmlns="http://www.w3.org/2000/svg"
 width="2400.000000pt" height="2400.000000pt" viewBox="0 0 2400.000000 2400.000000"
 preserveAspectRatio="xMidYMid meet">

<g transform="translate(0.000000,2400.000000) scale(0.100000,-0.100000)"
fill="#000000" stroke="none">
<path d="M7097 18605 c-2694 -1806 -4899 -3287 -4899 -3292 -2 -9 4063 -2653
4075 -2650 13 4 4876 3282 4876 3287 0 3 -426 284 -946 625 -521 341 -955 627
-964 635 -17 14 85 84 1304 901 l1322 886 36 -21 c63 -37 5718 -3791 5719
-3796 0 -3 -2122 -1429 -4715 -3170 -2593 -1741 -4714 -3168 -4712 -3172 2 -8
2023 -1348 2032 -1348 5 0 11730 7804 11744 7817 3 2 -4 12 -15 22 -21 22
-9944 6561 -9953 6560 -3 0 -2210 -1478 -4904 -3284z"/>
<path d="M19746 20534 c-1117 -739 -2031 -1346 -2033 -1348 -6 -6 2021 -1370
2036 -1370 9 -1 472 307 1029 682 l1012 684 0 1349 c0 742 -3 1349 -7 1349 -5
-1 -921 -606 -2037 -1346z"/>
<path d="M11940 15297 c-1009 -672 -3652 -2432 -5873 -3911 -2221 -1479 -4036
-2693 -4034 -2699 1 -5 1355 -900 3007 -1989 1653 -1089 3894 -2566 4982
-3283 l1976 -1302 4894 3279 c2691 1804 4899 3285 4906 3292 10 10 -385 271
-2023 1334 -1119 727 -2040 1322 -2045 1322 -19 0 -4881 -3283 -4873 -3290 4
-4 436 -287 958 -630 523 -342 954 -626 958 -630 10 -9 -2621 -1774 -2643
-1774 -27 1 -5751 3807 -5741 3817 5 5 2126 1430 4712 3167 2587 1736 4704
3161 4705 3166 2 6 -1727 1159 -2005 1336 l-27 17 -1834 -1222z"/>
<path d="M3138 5502 l-1018 -687 0 -1354 c0 -1081 3 -1352 13 -1344 6 5 919
609 2027 1343 1108 733 2021 1338 2027 1344 10 9 -231 176 -1001 696 -558 376
-1018 686 -1023 687 -4 1 -466 -307 -1025 -685z"/>
</g>
</svg>
