<?xml version="1.0" standalone="no"?>
<!DOCTYPE svg PUBLIC "-//W3C//DTD SVG 20010904//EN"
 "http://www.w3.org/TR/2001/REC-SVG-20010904/DTD/svg10.dtd">
<svg version="1.0" xmlns="http://www.w3.org/2000/svg"
 width="828.000000pt" height="828.000000pt" viewBox="0 0 828.000000 828.000000"
 preserveAspectRatio="xMidYMid meet">

<g transform="translate(0.000000,828.000000) scale(0.100000,-0.100000)"
fill="#000000" stroke="none">
<path d="M3969 5991 c-42 -5 -100 -14 -130 -21 -30 -6 -74 -16 -99 -22 -192
-43 -449 -174 -615 -313 -104 -87 -130 -112 -188 -185 -34 -41 -64 -77 -67
-80 -7 -6 -69 -95 -87 -125 -18 -30 -120 -238 -126 -256 -3 -10 -26 -22 -56
-29 -28 -7 -54 -16 -57 -21 -3 -5 -12 -9 -20 -9 -26 0 -164 -57 -323 -134 -64
-31 -141 -93 -141 -114 0 -6 12 -25 27 -42 20 -25 32 -31 52 -27 64 13 128 29
146 36 36 15 239 61 269 61 27 0 28 -2 22 -32 -4 -18 -9 -97 -13 -176 -15
-380 112 -736 379 -1058 104 -126 317 -297 385 -310 27 -5 39 -2 59 17 44 41
35 63 -68 170 -146 149 -257 342 -321 554 -77 252 -67 618 22 840 5 11 13 32
19 46 14 36 30 38 382 45 400 9 688 -16 1085 -94 50 -10 195 -48 290 -76 43
-13 104 -34 220 -78 66 -25 251 -123 307 -162 117 -81 242 -217 263 -286 4
-14 12 -31 18 -39 7 -8 11 -56 12 -115 0 -94 -3 -106 -33 -166 -44 -90 -167
-220 -278 -295 -49 -33 -91 -63 -94 -66 -7 -9 -98 -58 -237 -129 -115 -58
-123 -64 -129 -96 -13 -68 45 -89 153 -55 37 12 77 26 88 31 11 5 55 23 97 40
43 16 86 34 95 39 10 5 59 28 108 52 50 23 104 53 121 65 17 13 34 20 38 17 3
-4 6 -1 6 5 0 7 6 12 14 12 12 0 68 38 195 132 48 36 147 132 196 193 59 72
108 166 126 241 6 27 15 59 20 72 12 30 12 167 0 190 -5 9 -17 44 -27 77 -17
54 -59 142 -74 155 -3 3 -13 17 -23 33 -29 45 -108 126 -162 165 -27 20 -52
39 -55 43 -26 34 -307 188 -420 229 -19 7 -48 19 -65 25 -56 23 -164 57 -255
80 -36 9 -81 21 -100 26 -151 41 -471 84 -757 100 -184 10 -416 4 -568 -15
-16 -3 -84 -9 -150 -16 -66 -6 -135 -15 -152 -20 -26 -6 -33 -5 -33 6 0 27
223 238 287 271 16 8 35 20 43 27 40 34 241 128 325 151 33 9 69 20 80 25 76
32 382 50 525 31 143 -19 270 -49 270 -63 0 -4 11 -8 25 -8 14 0 33 -4 43 -10
9 -5 40 -19 67 -31 124 -53 183 -88 323 -191 36 -27 46 -30 69 -22 35 12 58
52 50 86 -14 55 -309 320 -417 375 -19 10 -37 21 -40 24 -8 10 -87 48 -165 81
-98 41 -235 83 -337 102 -101 20 -329 28 -439 17z"/>
<path d="M4425 3498 c-11 -6 -22 -14 -25 -17 -3 -3 -27 -18 -55 -32 -78 -40
-218 -121 -238 -138 -16 -13 -17 -51 -15 -590 l3 -576 191 -3 c175 -2 192 -1
212 16 l22 19 0 652 c0 704 2 681 -52 681 -13 0 -32 -6 -43 -12z"/>
<path d="M3930 3213 c-36 -20 -67 -39 -70 -43 -3 -4 -21 -14 -40 -24 -19 -9
-48 -27 -63 -41 l-27 -26 0 -454 c0 -403 2 -455 16 -470 13 -13 37 -15 138
-13 l121 3 3 553 c1 303 -1 552 -5 552 -5 0 -37 -17 -73 -37z"/>
</g>
</svg>
