<?xml version="1.0" standalone="no"?>
<!DOCTYPE svg PUBLIC "-//W3C//DTD SVG 20010904//EN"
 "http://www.w3.org/TR/2001/REC-SVG-20010904/DTD/svg10.dtd">
<svg version="1.0" xmlns="http://www.w3.org/2000/svg"
 width="500.000000pt" height="500.000000pt" viewBox="0 0 500.000000 500.000000"
 preserveAspectRatio="xMidYMid meet">

<g transform="translate(0.000000,500.000000) scale(0.100000,-0.100000)"
fill="#000000" stroke="none">
<path d="M1705 4346 c11 -8 25 -12 32 -9 20 8 4 23 -25 23 -24 0 -25 -1 -7
-14z"/>
<path d="M1696 4225 c-10 -8 -15 -18 -11 -24 3 -6 1 -11 -5 -11 -6 0 -8 -5 -4
-12 4 -6 3 -8 -3 -5 -6 4 -24 2 -42 -3 -19 -5 -29 -5 -26 1 4 5 13 9 21 9 8 0
14 4 14 10 0 5 8 7 18 4 14 -5 14 -4 2 4 -8 5 -26 13 -40 17 -23 7 -24 6 -10
-10 13 -15 12 -17 -5 -15 -34 4 -46 0 -40 -10 4 -6 -8 -10 -30 -10 -33 0 -145
-44 -145 -57 0 -3 8 -2 18 2 39 17 158 -3 227 -38 84 -42 133 -89 306 -296
l180 -214 -23 -25 c-20 -22 -249 -219 -346 -297 -20 -16 -61 -55 -92 -85 -30
-30 -58 -54 -62 -52 -5 1 -8 -5 -8 -13 0 -8 -6 -15 -14 -15 -8 0 -29 -20 -47
-45 -18 -25 -36 -45 -41 -45 -4 0 -8 -7 -8 -16 0 -8 -4 -13 -9 -10 -5 3 -14
-1 -21 -9 -14 -17 -13 -18 49 -90 19 -22 40 -43 47 -48 8 -4 71 51 181 160
177 175 296 286 423 394 41 35 82 71 90 79 9 8 68 59 131 113 63 53 121 107
129 119 8 11 25 30 38 41 12 11 22 29 22 40 0 17 -1 17 -16 3 -18 -19 -30 -20
-40 -4 -5 8 -2 9 9 5 10 -3 17 -2 17 3 0 6 -13 10 -29 10 -32 0 -49 15 -29 24
7 3 0 2 -17 -1 -16 -3 -33 -10 -36 -16 -8 -12 -31 1 -24 14 4 5 -3 9 -14 9
-12 0 -21 5 -21 11 0 6 8 8 19 4 11 -3 22 -1 26 5 9 14 -38 13 -54 -2 -11 -11
-13 -10 -8 3 5 15 1 16 -46 3 -28 -7 -53 -12 -55 -9 -7 7 55 34 63 27 5 -4 5
-1 1 6 -8 14 -52 16 -61 2 -3 -5 -12 -7 -20 -3 -8 3 -15 -1 -15 -8 0 -7 -3 -9
-6 -6 -4 4 -1 14 6 22 11 13 15 13 21 3 7 -10 9 -9 9 5 0 9 5 17 10 17 6 0 10
5 10 11 0 6 -7 8 -15 5 -9 -3 -18 1 -21 9 -4 8 -11 15 -16 15 -6 0 -16 8 -23
17 -9 12 -17 14 -27 8 -8 -6 -7 -3 2 5 15 13 15 18 3 29 -9 8 -25 10 -41 7
-15 -4 -22 -3 -16 1 6 4 13 16 17 26 5 12 1 17 -13 17 -10 0 -22 5 -25 10 -3
6 -17 10 -31 10 -13 0 -24 5 -24 12 0 6 -3 8 -6 5 -4 -3 -16 0 -28 8 -22 16
-40 20 -32 7 3 -5 -12 -6 -32 -2 -21 3 -36 11 -34 18 1 7 0 12 -3 12 -9 0 -45
-34 -45 -43 0 -5 7 -4 15 3 9 7 15 8 15 2 0 -16 -25 -21 -43 -7 -22 16 -22 25
1 25 21 0 55 37 47 50 -4 6 -24 7 -47 3 -36 -5 -40 -4 -35 11 6 15 4 15 -23 1
-17 -9 -30 -11 -30 -5 0 5 6 10 13 10 8 0 14 7 14 15 0 8 -9 15 -19 15 -10 0
-17 3 -15 8 1 4 -2 8 -7 9 -5 1 -12 6 -15 11 -4 7 -13 5 -25 -3z m29 -15 c3
-5 2 -10 -4 -10 -5 0 -13 5 -16 10 -3 6 -2 10 4 10 5 0 13 -4 16 -10z m2 -72
c-3 -8 -6 -5 -6 6 -1 11 2 17 5 13 3 -3 4 -12 1 -19z m-252 2 c-3 -5 -12 -10
-18 -10 -7 0 -6 4 3 10 19 12 23 12 15 0z m285 -4 c0 -3 -4 -8 -10 -11 -5 -3
-10 -1 -10 4 0 6 5 11 10 11 6 0 10 -2 10 -4z"/>
<path d="M1855 4190 c-3 -5 -2 -10 4 -10 5 0 13 5 16 10 3 6 2 10 -4 10 -5 0
-13 -4 -16 -10z"/>
<path d="M1315 4099 c-16 -4 -26 -7 -21 -8 5 0 3 -8 -4 -16 -11 -13 -6 -12 21
2 44 23 43 23 38 26 -2 2 -17 0 -34 -4z"/>
<path d="M1233 4075 c-9 -24 1 -27 15 -5 8 13 8 20 2 20 -6 0 -13 -7 -17 -15z"/>
<path d="M1180 4056 c0 -2 7 -7 16 -10 8 -3 12 -2 9 4 -6 10 -25 14 -25 6z"/>
<path d="M1211 4017 c-13 -21 -12 -21 5 -5 10 10 16 20 13 22 -3 3 -11 -5 -18
-17z"/>
<path d="M770 4021 c0 -6 4 -13 10 -16 6 -3 7 1 4 9 -7 18 -14 21 -14 7z"/>
<path d="M2310 4016 c0 -2 7 -7 16 -10 8 -3 12 -2 9 4 -6 10 -25 14 -25 6z"/>
<path d="M1155 3960 c4 -6 11 -8 16 -5 14 9 11 15 -7 15 -8 0 -12 -5 -9 -10z"/>
<path d="M521 3790 c-15 -72 -14 -279 3 -380 39 -236 142 -436 337 -655 98
-111 173 -191 166 -179 -4 7 2 14 13 17 16 4 19 0 16 -22 -2 -14 -1 -21 1 -14
3 10 9 10 24 0 16 -10 21 -9 29 3 8 12 10 11 10 -7 0 -13 9 -28 20 -35 26 -17
25 -28 -1 -28 -16 0 -20 -4 -15 -17 6 -19 -5 -7 -39 41 -14 19 -15 18 -37 -10
-13 -16 -59 -69 -103 -119 -206 -230 -215 -242 -215 -285 0 -45 -14 -28 245
-315 99 -110 231 -257 294 -327 62 -71 117 -128 121 -128 14 0 85 32 112 51
29 21 38 23 38 10 0 -5 -15 -14 -32 -21 -30 -11 -31 -13 -13 -21 l20 -9 -20 2
c-11 1 -35 -6 -52 -15 -29 -15 -31 -20 -21 -37 7 -10 16 -16 20 -14 4 3 8 -1
8 -8 0 -22 67 -81 84 -75 8 3 17 1 20 -6 3 -9 5 -9 5 1 2 21 19 13 23 -10 3
-24 29 -31 66 -17 18 7 27 6 33 -2 4 -7 12 -8 20 -3 8 5 29 9 47 10 25 1 30
-2 18 -8 -9 -5 -16 -16 -16 -23 0 -8 -4 -15 -10 -15 -5 0 -10 7 -10 16 0 14
-2 14 -16 -1 -18 -17 -90 -19 -112 -2 -8 7 -16 7 -23 0 -11 -11 84 -127 112
-138 9 -3 19 -15 22 -27 4 -15 11 -19 26 -15 14 3 18 1 14 -9 -3 -8 2 -17 11
-20 9 -3 13 -10 11 -15 -3 -5 13 -29 36 -54 34 -37 44 -43 60 -34 14 7 19 21
19 53 0 34 5 47 23 59 22 14 22 15 3 36 -19 21 -19 21 2 21 15 0 22 -6 22 -20
0 -11 5 -20 11 -20 5 0 7 5 4 10 -3 6 3 10 14 10 22 0 29 -16 9 -22 -6 -2 -12
-20 -14 -39 -1 -19 -3 -40 -3 -46 -1 -7 -7 -13 -15 -13 -10 0 -12 -8 -7 -32 8
-36 31 -54 57 -44 17 7 16 9 -11 21 l-30 13 40 1 c25 0 49 -7 65 -19 14 -11
32 -20 40 -19 11 0 11 2 -3 10 -12 7 -16 17 -12 32 4 14 3 17 -2 10 -7 -10
-18 -8 -46 7 -21 12 -42 18 -47 15 -15 -9 -22 15 -10 30 9 11 9 15 1 15 -16 0
-14 17 3 23 10 4 13 1 10 -8 -3 -7 3 -18 14 -24 11 -6 26 -17 34 -24 11 -10
16 -9 31 5 16 17 16 18 -2 18 -26 0 -35 27 -11 33 23 6 56 -16 46 -31 -9 -15
4 -42 20 -42 8 0 14 5 14 10 0 6 -5 10 -11 10 -5 0 -7 5 -4 10 3 6 11 10 16
10 6 0 7 -4 4 -10 -3 -5 -2 -10 4 -10 6 0 7 -8 4 -17 -6 -16 -5 -16 17 0 14 9
35 17 47 17 15 0 23 6 23 17 0 14 2 14 20 -2 12 -10 20 -13 20 -6 0 12 38 -5
53 -24 4 -6 10 -5 16 4 7 10 21 12 52 7 l44 -6 -24 20 c-18 15 -19 20 -7 20
21 0 20 6 -5 31 -11 11 -18 27 -15 34 3 8 0 16 -7 19 -7 2 5 5 25 5 41 1 59
16 28 24 -11 3 -24 16 -29 29 -12 31 -51 67 -51 47 -1 -10 -4 -8 -11 4 -6 10
-8 21 -5 24 9 9 -14 44 -25 38 -5 -4 -9 3 -9 14 0 11 -11 28 -25 37 -26 17
-34 44 -13 44 9 0 9 3 0 12 -7 7 -12 21 -12 33 0 19 -2 18 -21 -5 -15 -18 -18
-19 -11 -5 13 27 5 45 -20 45 -11 0 -18 5 -15 13 2 6 9 11 15 10 5 -1 8 6 5
17 -3 11 -9 17 -14 14 -5 -3 -9 1 -9 9 0 20 -25 28 -39 14 -8 -8 -11 -8 -11 2
0 8 -6 11 -15 7 -10 -3 -27 11 -50 42 -19 26 -39 52 -45 59 -5 7 -27 11 -49 9
-36 -3 -39 -1 -36 21 1 14 -4 27 -11 30 -8 3 -14 11 -14 18 0 6 -9 20 -20 30
-14 13 -17 22 -10 29 17 17 12 23 -17 22 -16 -1 -27 4 -26 10 1 7 -13 15 -32
18 -34 7 -39 13 -36 46 2 17 -62 50 -97 50 -12 0 -22 5 -22 11 0 7 12 9 36 4
34 -6 35 -5 29 17 -4 13 -11 25 -16 28 -5 3 -10 16 -12 28 -2 13 -17 32 -35
42 -23 14 -30 16 -25 5 4 -11 -2 -15 -18 -14 -13 0 -19 3 -12 6 8 3 3 13 -14
29 -31 29 -33 29 -28 4 2 -12 0 -18 -6 -15 -5 4 -7 10 -4 15 3 5 -4 14 -16 20
-20 11 -20 12 -2 27 16 13 16 14 1 9 -10 -3 -18 -1 -18 4 0 6 6 10 14 10 22 0
28 29 11 53 -8 12 -15 16 -15 9 0 -6 -7 -12 -16 -12 -14 0 -14 1 0 16 20 19
20 26 2 22 -8 -2 -33 14 -55 35 -48 45 -73 52 -113 31 -33 -17 -64 -12 -52 8
4 7 -1 6 -10 -3 -13 -12 -26 -15 -52 -9 -19 5 -32 4 -28 -1 3 -5 -2 -9 -11 -9
-9 0 -13 5 -10 10 11 18 -24 23 -40 6 -9 -9 -22 -16 -28 -15 -9 0 -8 2 1 6 6
2 12 9 12 14 0 6 -6 7 -12 4 -7 -4 2 7 20 24 36 35 89 44 78 14 -6 -14 -4 -14
16 2 13 11 25 22 28 24 3 2 -3 1 -13 -2 -23 -9 -50 16 -35 31 6 6 17 8 24 5 8
-3 17 5 23 19 5 13 57 67 115 118 125 112 133 125 74 115 -24 -4 -50 -11 -59
-16 -13 -7 -15 -4 -11 17 3 18 0 25 -9 24 -30 -5 -38 1 -41 27 -2 19 -10 29
-23 31 -17 3 -18 1 -5 -8 10 -8 11 -10 2 -8 -8 2 -13 7 -12 12 3 17 -30 28
-45 16 -12 -10 -12 -8 -2 13 10 21 16 24 48 20 44 -6 60 18 27 41 -16 12 -19
21 -15 45 6 29 5 30 -19 21 -35 -14 -42 -12 -20 5 11 8 16 15 12 15 -5 0 -3 6
3 14 15 18 -16 53 -32 37 -13 -13 -47 8 -40 26 3 8 0 11 -9 8 -8 -3 -25 -1
-39 4 -18 7 -20 10 -6 10 10 1 15 6 12 11 -4 6 -14 10 -23 9 -10 -1 -24 -1
-32 0 -13 1 -13 2 0 11 8 5 11 12 7 17 -5 4 -16 -1 -25 -13 -9 -11 -30 -26
-47 -33 -16 -7 -38 -17 -47 -22 -13 -7 -16 -5 -12 6 4 8 1 16 -5 16 -6 1 -15
3 -21 4 -5 1 -15 3 -21 4 -8 1 -7 6 2 17 12 15 11 16 -11 10 -19 -6 -21 -5
-10 3 8 6 22 9 30 6 16 -5 76 42 66 52 -3 3 -18 1 -32 -6 -28 -12 -44 -7 -44
15 0 8 9 14 22 14 12 0 18 3 15 7 -4 3 -2 12 4 20 9 11 1 13 -45 13 -63 0 -75
14 -19 25 l36 7 -26 22 c-27 23 -37 44 -15 30 7 -4 8 -3 4 5 -4 6 -11 9 -15 7
-4 -3 -14 5 -21 19 -8 15 -18 21 -28 18 -10 -4 -13 -2 -8 5 4 7 2 12 -4 12 -6
0 -8 5 -5 10 3 6 -1 10 -10 10 -8 0 -21 11 -27 25 -6 14 -16 25 -21 25 -6 0
-8 3 -4 6 3 3 -8 19 -24 35 -29 29 -41 60 -16 43 7 -5 1 1 -13 13 -14 13 -25
27 -25 31 0 5 -13 21 -30 36 l-30 28 29 -17 c21 -13 31 -15 34 -6 2 6 8 9 12
6 5 -3 12 0 16 7 4 7 4 10 -1 6 -4 -4 -14 -3 -22 4 -7 6 -16 8 -20 4 -4 -3
-18 4 -31 16 -14 13 -22 18 -18 11 3 -6 2 -14 -3 -18 -6 -3 -8 6 -5 21 3 14
-1 32 -7 40 -10 12 -8 13 7 9 12 -4 11 -1 -4 6 -22 12 -25 36 -4 32 6 -2 9 4
5 13 -5 13 -8 13 -15 2 -7 -9 -8 -8 -6 7 3 13 10 19 23 17 15 -3 17 -1 7 11
-6 7 -8 18 -4 22 4 5 2 5 -5 1 -6 -3 -14 -2 -18 4 -12 20 -26 10 -14 -11 9
-17 8 -20 -3 -17 -7 3 -14 10 -14 16 -1 7 -2 17 -3 23 0 6 -8 8 -17 5 -8 -3
-13 -2 -10 2 3 5 -1 20 -9 34 -14 28 -13 29 58 52 31 10 18 26 -23 26 -38 0
-40 1 -34 25 3 14 4 25 1 25 -3 0 -10 -23 -16 -50z m322 -657 c-7 -2 -21 -2
-30 0 -10 3 -4 5 12 5 17 0 24 -2 18 -5z m387 -334 c0 -5 5 -7 12 -3 7 4 8 3
4 -4 -10 -16 -23 -15 -30 3 -3 8 -1 15 4 15 6 0 10 -5 10 -11z m48 -106 c-10
-13 -13 -13 -19 4 -5 11 -8 13 -8 4 -1 -8 -4 -12 -7 -8 -12 11 6 25 26 20 17
-4 18 -8 8 -20z m-38 -37 c0 -3 -4 -8 -10 -11 -5 -3 -10 -1 -10 4 0 6 5 11 10
11 6 0 10 -2 10 -4z m59 -76 c11 0 11 -3 1 -15 -16 -19 -27 -19 -46 -1 -20 21
-17 29 9 22 12 -3 28 -6 36 -6z m-63 -25 c4 -8 16 -15 28 -15 21 -1 21 -1 2
-15 -27 -20 -70 -20 -62 0 3 8 0 14 -6 12 -6 -1 -13 4 -16 12 -3 8 0 11 7 7 6
-4 11 -2 11 3 0 17 30 13 36 -4z m84 -14 c0 -4 -7 -8 -15 -8 -16 0 -20 9 -9
20 8 8 24 -1 24 -12z m-21 -30 c9 -6 4 -10 -18 -13 -24 -4 -28 -2 -20 9 13 15
19 16 38 4z m-53 -23 c8 -7 21 -18 28 -25 11 -9 18 -8 34 8 27 25 30 24 24 -6
-2 -14 -8 -22 -13 -19 -5 3 -9 1 -9 -4 0 -10 -41 -9 -77 3 -24 8 -32 25 -12
25 8 0 8 5 -1 15 -16 19 4 21 26 3z m-60 -28 c8 0 14 -5 14 -11 0 -15 -53 -6
-58 10 -3 10 0 12 12 8 10 -4 24 -7 32 -7z m356 -408 c-7 -2 -10 -8 -6 -13 3
-5 1 -9 -5 -9 -5 0 -13 5 -16 10 -4 6 -11 8 -16 5 -5 -4 -9 -1 -9 5 0 7 7 10
15 7 8 -4 17 -2 20 4 4 5 11 6 18 2 8 -5 8 -8 -1 -11z m125 -157 c9 -25 -4
-29 -17 -6 -7 15 -7 21 0 21 6 0 13 -7 17 -15z m-172 -50 c15 -6 17 -9 5 -13
-9 -3 2 -12 30 -26 24 -12 49 -31 56 -43 6 -13 14 -20 17 -17 10 10 36 -22 28
-35 -10 -16 -73 -10 -88 9 -10 12 -12 13 -13 1 0 -10 -10 -5 -29 13 -26 25
-28 31 -16 43 12 11 12 17 2 27 -9 10 -14 11 -19 2 -6 -8 -10 -7 -17 3 -5 7
-14 10 -20 7 -13 -8 -45 13 -48 32 -2 6 4 12 12 12 8 0 15 5 15 11 0 5 4 8 9
4 5 -3 13 0 17 6 5 8 12 6 23 -8 9 -11 25 -24 36 -28z m75 -180 c10 -12 10
-19 2 -27 -9 -9 -12 -7 -12 9 0 12 -6 24 -12 26 -8 4 -9 6 -2 6 6 1 17 -6 24
-14z m-26 -32 c8 -21 -10 -41 -24 -27 -11 11 -3 44 10 44 4 0 11 -8 14 -17z
m-147 -25 c-3 -8 -6 -5 -6 6 -1 11 2 17 5 13 3 -3 4 -12 1 -19z m167 -37 c3
-4 -6 -6 -19 -3 -14 2 -25 6 -25 8 0 8 39 4 44 -5z m136 -81 c0 -5 -8 -10 -17
-10 -15 0 -16 2 -3 10 19 12 20 12 20 0z m-39 -34 c-23 -13 -24 -14 -5 -20 10
-3 2 -3 -18 0 -25 3 -39 0 -45 -9 -4 -7 -17 -17 -28 -21 l-20 -7 20 20 c11 11
38 27 60 34 52 19 66 20 36 3z m139 -6 c0 -5 -2 -10 -4 -10 -3 0 -8 5 -11 10
-3 6 -1 10 4 10 6 0 11 -4 11 -10z m110 -36 c0 -2 -9 -4 -20 -4 -11 0 -20 4
-20 9 0 5 9 7 20 4 11 -3 20 -7 20 -9z m-395 -94 c3 -5 -3 -10 -15 -10 -12 0
-18 5 -15 10 3 6 10 10 15 10 5 0 12 -4 15 -10z m122 -32 c-3 -7 -5 -2 -5 12
0 14 2 19 5 13 2 -7 2 -19 0 -25z m-132 -8 c-22 -8 -47 -2 -40 10 2 4 17 5 32
2 24 -5 25 -6 8 -12z m368 -127 c-7 -2 -19 -2 -25 0 -7 3 -2 5 12 5 14 0 19
-2 13 -5z m-78 -13 c3 -5 -3 -10 -14 -10 -12 0 -21 5 -21 10 0 6 6 10 14 10 8
0 18 -4 21 -10z m148 -36 c-4 -10 -9 -8 -23 9 -10 12 -16 26 -13 30 8 13 42
-23 36 -39z m72 -40 c14 -9 25 -20 25 -24 0 -14 -46 2 -58 21 -15 24 -1 25 33
3z m129 -60 c3 -8 2 -12 -4 -9 -6 3 -10 10 -10 16 0 14 7 11 14 -7z m220 -5
c-3 -6 -20 -17 -38 -25 -26 -11 -27 -13 -9 -14 43 0 101 -80 58 -80 -8 0 -15
5 -15 11 0 8 -4 8 -14 0 -19 -16 -60 7 -45 25 6 7 4 16 -6 24 -23 19 -18 28
28 49 52 24 50 23 41 10z m-377 -15 c-3 -3 -12 -4 -19 -1 -8 3 -5 6 6 6 11 1
17 -2 13 -5z m50 -45 c-1 -13 -5 -14 -19 -5 -23 14 -23 22 1 22 12 0 19 -7 18
-17z m169 -57 c-22 -5 -30 3 -21 18 5 8 11 7 22 -2 15 -12 14 -13 -1 -16z"/>
<path d="M1220 2540 c6 -11 13 -20 16 -20 2 0 0 9 -6 20 -6 11 -13 20 -16 20
-2 0 0 -9 6 -20z"/>
<path d="M2320 940 c0 -5 5 -10 10 -10 6 0 10 5 10 10 0 6 -4 10 -10 10 -5 0
-10 -4 -10 -10z"/>
<path d="M2315 910 c3 -5 10 -10 16 -10 5 0 9 5 9 10 0 6 -7 10 -16 10 -8 0
-12 -4 -9 -10z"/>
<path d="M570 3719 c0 -11 21 -11 39 0 9 6 5 9 -13 9 -14 0 -26 -4 -26 -9z"/>
<path d="M3465 3670 c-4 -6 -2 -17 4 -24 6 -7 8 -16 4 -19 -3 -4 -1 -7 6 -7 7
0 10 10 7 26 -6 32 -12 39 -21 24z"/>
<path d="M716 3632 c-3 -4 4 -9 15 -9 23 -2 25 3 4 10 -8 4 -16 3 -19 -1z"/>
<path d="M3505 3630 c-9 -15 4 -50 20 -50 7 0 20 -11 29 -25 9 -14 21 -23 26
-20 15 9 12 25 -3 25 -8 0 -19 12 -26 26 -7 17 -17 24 -27 20 -12 -4 -14 -1
-9 14 7 21 1 27 -10 10z"/>
<path d="M661 3541 c-8 -5 -9 -11 -3 -15 5 -3 12 1 16 9 6 17 6 18 -13 6z"/>
<path d="M3600 3517 c0 -8 -3 -24 -6 -34 -5 -17 -5 -17 9 0 19 23 25 22 30 -5
4 -22 4 -22 6 -2 0 11 -8 29 -19 39 -17 16 -20 16 -20 2z"/>
<path d="M3655 3450 c3 -5 8 -10 11 -10 2 0 4 5 4 10 0 6 -5 10 -11 10 -5 0
-7 -4 -4 -10z"/>
<path d="M716 3421 c-3 -5 1 -12 10 -15 22 -8 25 -4 9 11 -8 7 -16 9 -19 4z"/>
<path d="M3685 3376 c1 -6 5 -19 10 -29 4 -10 2 -23 -5 -32 -10 -13 -9 -15 11
-15 18 0 20 -3 11 -12 -17 -17 -15 -28 4 -28 8 0 13 -4 10 -9 -4 -5 0 -12 6
-14 8 -4 9 -6 2 -6 -6 -1 -17 6 -24 14 -14 16 -55 21 -45 5 3 -5 -3 -10 -15
-10 -13 0 -19 4 -14 12 4 7 3 8 -5 4 -22 -14 1 -28 34 -22 26 5 39 2 59 -17
l25 -23 -19 -29 c-11 -17 -22 -50 -26 -75 -4 -25 -12 -48 -18 -52 -8 -5 -7 -8
2 -8 14 0 16 -38 2 -60 -6 -9 -5 -17 3 -22 8 -5 5 -8 -8 -8 -11 0 -15 -4 -10
-8 10 -7 15 -27 18 -69 1 -12 6 -21 11 -20 5 1 18 -13 29 -31 15 -26 17 -36 8
-42 -9 -5 -7 -9 8 -13 14 -3 19 -11 16 -26 -2 -13 1 -21 11 -21 8 0 14 -7 14
-15 0 -9 11 -27 24 -40 13 -13 21 -26 19 -29 -3 -3 -1 -11 4 -18 6 -7 13 -30
17 -50 4 -21 11 -38 16 -38 6 0 9 -3 8 -7 -1 -5 4 -19 12 -33 8 -14 15 -31 16
-39 2 -8 6 -17 11 -20 5 -3 14 -18 20 -33 9 -21 9 -28 0 -32 -8 -3 -6 -8 6
-16 9 -6 15 -15 12 -20 -3 -4 3 -6 14 -3 11 3 21 -2 24 -11 4 -9 1 -16 -6 -16
-7 0 -3 -7 7 -15 11 -8 25 -15 30 -15 8 0 8 3 0 8 -16 11 -24 41 -14 47 6 4
10 -3 10 -14 0 -24 12 -26 40 -9 17 11 22 10 30 -1 7 -12 12 -11 29 10 14 17
20 19 21 9 0 -13 1 -13 10 0 7 11 10 11 10 2 0 -9 5 -10 18 -4 20 11 45 5 36
-9 -3 -5 2 -9 10 -9 19 0 20 5 5 31 -6 11 -17 18 -24 15 -8 -3 -16 0 -19 7 -3
9 -8 8 -15 -3 -7 -10 -11 -11 -11 -3 0 7 -11 12 -24 11 -16 -2 -22 -7 -19 -19
6 -21 -15 -35 -30 -20 -8 8 -6 11 9 12 11 0 14 3 6 6 -7 3 -20 -1 -29 -9 -15
-12 -15 -11 -4 10 8 15 8 22 1 22 -6 0 -9 4 -5 9 3 6 17 6 35 1 26 -8 30 -6
30 11 0 16 4 19 21 14 12 -4 19 -3 16 2 -3 5 -1 15 4 23 7 12 8 11 6 -5 -1
-11 -6 -25 -9 -31 -4 -6 -1 -11 7 -11 16 0 18 8 15 44 -1 17 3 21 14 17 9 -3
16 -10 16 -16 0 -5 5 -6 10 -3 18 11 11 -4 -12 -25 -19 -18 -20 -22 -8 -30 20
-13 33 -13 25 0 -3 6 -1 10 4 10 15 0 14 53 -1 68 -9 9 -9 12 0 12 21 0 13 53
-18 115 -24 46 -29 68 -25 96 6 32 2 39 -33 71 -22 20 -46 39 -55 44 -9 5 -22
24 -30 43 -12 29 -12 37 1 64 15 29 14 31 -16 58 -32 29 -75 102 -66 112 7 6
-74 106 -154 190 -40 43 -60 57 -74 54 -11 -3 -28 3 -39 14 -10 10 -17 19 -14
19 2 0 0 11 -5 25 -8 20 -7 23 7 18 10 -4 14 -2 10 4 -10 15 -45 23 -42 9z
m510 -836 c3 -5 1 -10 -4 -10 -6 0 -11 5 -11 10 0 6 2 10 4 10 3 0 8 -4 11
-10z m45 -80 c0 -5 -2 -10 -4 -10 -3 0 -8 5 -11 10 -3 6 -1 10 4 10 6 0 11 -4
11 -10z m-138 -72 c-13 -13 -54 -19 -46 -6 3 4 -1 9 -8 9 -7 1 3 5 22 8 41 8
48 5 32 -11z m-42 -52 c0 -2 -7 -7 -16 -10 -8 -3 -12 -2 -9 4 6 10 25 14 25 6z"/>
<path d="M3745 3351 c3 -5 1 -12 -5 -16 -14 -9 -12 -22 4 -28 10 -4 12 0 8 15
-4 16 -2 19 9 13 12 -8 12 -6 0 8 -14 18 -26 23 -16 8z"/>
<path d="M1840 3035 c-20 -24 -6 -28 15 -5 10 11 13 20 8 20 -6 0 -16 -7 -23
-15z"/>
<path d="M3650 3021 c0 -5 3 -11 8 -14 4 -2 2 -2 -5 -1 -7 2 -15 -1 -18 -6 -4
-6 5 -10 19 -10 28 0 29 1 20 24 -7 17 -24 22 -24 7z"/>
<path d="M1048 2913 c7 -3 16 -2 19 1 4 3 -2 6 -13 5 -11 0 -14 -3 -6 -6z"/>
<path d="M1297 2834 c3 -7 9 -14 14 -14 14 0 10 17 -5 23 -10 4 -13 1 -9 -9z"/>
<path d="M3694 2715 c-8 -20 2 -45 19 -45 9 0 12 9 9 30 -5 32 -19 40 -28 15z
m13 -27 c-3 -7 -5 -2 -5 12 0 14 2 19 5 13 2 -7 2 -19 0 -25z"/>
<path d="M2877 2677 c-171 -54 -220 -323 -84 -465 54 -56 100 -75 167 -67 l58
7 143 -239 c160 -268 189 -313 189 -295 0 7 5 10 12 6 6 -4 8 -3 4 4 -3 6 2
15 11 21 11 6 13 11 5 11 -10 0 -10 3 0 14 7 7 18 11 25 9 6 -2 14 5 18 16 4
13 12 18 21 14 9 -3 27 6 43 21 15 14 30 24 33 21 2 -3 13 4 23 15 17 18 17
20 2 14 -9 -3 -17 -11 -17 -17 0 -6 -3 -8 -6 -5 -6 7 17 48 27 48 4 0 17 -28
29 -62 19 -51 24 -59 30 -43 9 22 13 15 24 -37 4 -16 20 -35 41 -48 19 -12 35
-27 35 -33 0 -7 4 -6 10 3 13 21 12 30 -2 25 -8 -3 -13 4 -13 20 0 14 4 25 8
25 5 0 5 5 2 11 -4 6 -13 8 -21 5 -8 -3 -14 -1 -14 4 0 16 26 11 53 -10 l26
-20 15 21 c8 12 12 27 9 32 -3 6 -1 7 5 3 18 -11 14 -24 -13 -52 -14 -14 -25
-33 -25 -44 0 -10 -4 -21 -9 -25 -15 -9 -42 -67 -35 -74 4 -3 9 0 11 7 3 7 16
17 28 22 13 5 25 19 27 32 2 13 9 22 15 21 6 -1 9 6 6 17 -6 24 9 26 28 4 10
-13 10 -17 -2 -25 -8 -5 -20 -7 -26 -4 -7 2 -13 0 -13 -5 0 -6 5 -10 10 -10 6
0 10 -9 10 -20 0 -22 -49 -72 -63 -63 -5 3 -7 0 -5 -8 3 -8 1 -22 -4 -31 -6
-13 -5 -18 4 -18 10 0 10 -2 0 -9 -11 -6 -10 -10 4 -15 9 -3 14 -9 11 -13 -9
-8 12 -45 23 -38 5 3 13 -3 19 -12 12 -23 24 -11 25 24 1 17 6 27 14 26 6 -2
12 4 12 13 0 13 3 14 14 5 11 -9 15 -8 20 4 3 9 -1 18 -9 21 -8 4 -12 10 -9
15 3 5 10 7 15 4 10 -7 11 -2 13 60 1 36 4 40 26 40 18 0 25 -5 24 -17 -1 -10
3 -15 9 -11 6 3 7 1 3 -5 -4 -7 -15 -12 -24 -12 -13 0 -14 -2 -3 -9 10 -7 11
-9 1 -13 -10 -3 -11 -9 -2 -24 6 -10 12 -14 12 -7 0 6 6 18 14 25 18 18 30 58
17 58 -14 0 -37 52 -33 73 2 12 9 16 21 12 25 -8 23 23 -3 49 -14 14 -16 21
-7 24 18 6 54 42 42 42 -11 0 -9 18 7 47 15 26 15 36 2 28 -5 -3 -10 -1 -10 4
0 6 4 11 9 11 4 0 6 11 3 25 -2 14 -9 25 -14 25 -6 0 -7 7 -4 16 5 14 4 15 -9
4 -17 -14 -21 0 -4 17 7 7 6 12 -5 16 -9 4 -16 1 -16 -6 0 -7 -10 -14 -22 -14
-13 -1 -24 -7 -26 -13 -2 -6 -15 4 -28 21 -13 18 -24 29 -24 24 0 -19 -80 70
-81 90 0 11 -3 15 -5 10 -5 -13 -74 -7 -74 6 0 5 -11 9 -25 9 -23 0 -25 -2
-14 -21 8 -16 8 -24 -2 -33 -9 -8 -11 -7 -6 5 7 22 -4 36 -36 44 -23 6 -27 4
-27 -14 0 -26 -4 -26 -42 2 -49 34 -182 140 -198 157 -3 3 -23 18 -45 35 -22
16 -46 35 -52 41 -7 7 -28 22 -48 34 -37 23 -43 38 -23 58 6 6 11 36 10 65 -1
90 -44 169 -116 215 -22 14 -48 28 -56 29 -46 10 -89 10 -123 0z m738 -677 c3
-5 1 -10 -4 -10 -6 0 -11 5 -11 10 0 6 2 10 4 10 3 0 8 -4 11 -10z m145 -18
c6 2 19 -7 27 -19 10 -15 11 -23 4 -23 -6 0 -11 7 -11 16 0 12 -6 15 -25 10
-19 -5 -25 -2 -25 9 0 9 -4 14 -8 11 -5 -3 -9 1 -9 9 0 13 3 13 17 0 10 -9 23
-15 30 -13z m-101 -14 c12 -31 4 -36 -19 -11 -10 12 -16 24 -13 27 12 12 24 6
32 -16z m183 -43 c3 3 11 -3 19 -12 13 -16 12 -17 -3 -5 -13 10 -17 10 -20 0
-3 -8 -10 -4 -18 12 -12 22 -11 24 2 13 8 -7 17 -11 20 -8z m-197 -35 c-16
-16 -33 -30 -39 -30 -5 0 3 14 19 30 16 17 33 30 39 30 5 0 -3 -13 -19 -30z
m75 16 c0 5 6 2 13 -7 16 -20 45 -31 52 -18 8 13 25 1 25 -17 0 -8 -4 -13 -9
-9 -5 3 -12 1 -16 -5 -3 -5 -1 -10 6 -10 7 0 9 -3 6 -6 -9 -9 -38 16 -31 27 3
5 1 9 -4 9 -18 0 -21 -13 -7 -27 21 -21 18 -35 -5 -28 -12 4 -27 2 -34 -4 -18
-15 -41 -5 -55 25 -9 22 -8 30 10 55 17 24 24 27 35 18 8 -6 14 -8 14 -3z
m170 -45 c0 -18 -42 -91 -52 -91 -14 0 -9 19 12 40 24 24 24 28 4 51 -14 16
-13 17 10 15 15 0 26 -7 26 -15z m49 -50 c-12 -16 -18 -35 -14 -43 3 -7 -1 -4
-9 6 -19 24 -21 47 -3 40 7 -2 19 7 27 22 8 14 16 21 18 15 2 -5 -6 -23 -19
-40z m-99 25 c0 -3 -4 -8 -10 -11 -5 -3 -10 -1 -10 4 0 6 5 11 10 11 6 0 10
-2 10 -4z m-20 -67 c0 -11 5 -17 10 -14 12 7 12 3 4 -19 -3 -9 -10 -16 -15
-16 -4 0 -6 7 -3 15 4 8 2 15 -3 15 -4 0 -14 9 -21 20 -11 18 -10 20 8 20 14
0 20 -7 20 -21z m-155 -37 c-3 -3 -11 0 -18 7 -9 10 -8 11 6 5 10 -3 15 -9 12
-12z m155 -78 c0 -8 -19 -13 -24 -6 -3 5 1 9 9 9 8 0 15 -2 15 -3z m46 -151
c-11 -11 -17 4 -9 23 7 18 8 18 11 1 2 -10 1 -21 -2 -24z m-26 -18 c0 -9 -9
-15 -22 -15 -21 0 -21 0 -2 15 24 18 24 18 24 0z"/>
<path d="M3670 1871 c0 -20 13 -41 25 -41 16 0 27 27 14 35 -5 4 -8 2 -7 -3 2
-6 -1 -9 -7 -8 -5 0 -9 7 -7 14 2 6 -2 12 -8 12 -5 0 -10 -4 -10 -9z"/>
<path d="M3625 2671 c-3 -5 -2 -12 3 -15 5 -3 9 1 9 9 0 17 -3 19 -12 6z"/>
<path d="M3600 2629 c0 -7 8 -18 18 -26 16 -14 16 -14 -3 -10 -11 3 -28 8 -37
12 -13 5 -18 2 -18 -9 0 -12 10 -16 39 -16 22 0 42 -5 44 -12 3 -7 6 -2 6 12
1 18 4 21 10 11 6 -9 11 -10 15 -2 12 18 -5 33 -30 27 -17 -5 -24 -2 -24 9 0
8 -4 15 -10 15 -5 0 -10 -5 -10 -11z"/>
<path d="M3610 2560 c0 -5 5 -10 10 -10 6 0 10 5 10 10 0 6 -4 10 -10 10 -5 0
-10 -4 -10 -10z"/>
<path d="M3612 2508 c5 -15 58 -24 58 -10 0 6 -10 8 -22 4 -14 -3 -19 -2 -14
6 4 7 1 12 -9 12 -9 0 -15 -6 -13 -12z"/>
<path d="M1482 2498 c-7 -7 -12 -16 -12 -21 0 -5 7 -1 16 8 9 9 14 18 12 20
-2 3 -10 -1 -16 -7z"/>
<path d="M3835 2500 c3 -5 8 -10 11 -10 2 0 4 5 4 10 0 6 -5 10 -11 10 -5 0
-7 -4 -4 -10z"/>
<path d="M3731 2396 c-8 -10 -9 -16 -1 -21 5 -3 10 0 10 9 0 8 6 17 13 19 7 4
8 6 1 6 -6 1 -17 -5 -23 -13z"/>
<path d="M3686 2362 c-3 -5 1 -9 9 -9 8 0 12 4 9 9 -3 4 -7 8 -9 8 -2 0 -6 -4
-9 -8z"/>
<path d="M3808 2353 c7 -3 16 -2 19 1 4 3 -2 6 -13 5 -11 0 -14 -3 -6 -6z"/>
<path d="M3853 2330 c0 -25 4 -30 20 -28 11 2 22 -3 25 -11 3 -9 0 -11 -8 -6
-9 5 -11 4 -6 -3 4 -7 2 -12 -3 -12 -6 0 -11 5 -11 11 0 5 -5 7 -11 3 -17 -10
12 -24 38 -17 13 3 23 1 23 -5 0 -5 -10 -12 -23 -16 -13 -3 -24 -12 -24 -21 0
-21 15 -19 19 3 3 10 6 4 9 -16 4 -25 2 -32 -10 -30 -9 2 -16 -1 -16 -7 0 -5
-4 -16 -9 -23 -10 -16 2 -31 12 -16 4 6 14 13 23 17 13 4 16 14 12 40 -3 24 1
40 13 52 11 10 13 19 7 23 -5 4 -16 18 -23 32 -12 23 -12 24 4 11 9 -8 20 -11
24 -7 4 4 -1 12 -11 17 -9 6 -15 14 -12 19 3 5 -7 7 -21 4 -15 -3 -30 0 -34 6
-4 6 -7 -3 -7 -20z"/>
<path d="M1382 2307 c-26 -27 -28 -37 -7 -37 16 0 38 35 33 51 -2 6 -13 0 -26
-14z"/>
<path d="M4145 2280 c18 -8 18 -9 -6 -9 -16 -1 -26 -7 -26 -16 0 -18 13 -20
20 -2 4 9 8 9 15 -2 8 -11 12 -10 21 7 8 16 7 21 -5 26 -24 9 -42 6 -19 -4z"/>
<path d="M4235 2270 c3 -5 8 -10 11 -10 2 0 4 5 4 10 0 6 -5 10 -11 10 -5 0
-7 -4 -4 -10z"/>
<path d="M4032 2224 c-7 -8 -10 -19 -6 -26 5 -7 10 -3 16 12 10 28 7 33 -10
14z"/>
<path d="M4113 2212 c1 -12 6 -18 14 -15 16 6 13 25 -5 31 -6 2 -10 -6 -9 -16z"/>
<path d="M1481 2154 c0 -11 3 -14 6 -6 3 7 2 16 -1 19 -3 4 -6 -2 -5 -13z"/>
<path d="M4105 2160 c3 -5 8 -10 11 -10 2 0 4 5 4 10 0 6 -5 10 -11 10 -5 0
-7 -4 -4 -10z"/>
<path d="M3650 2120 c-12 -8 -12 -10 -1 -10 9 0 11 -7 8 -21 -4 -15 -3 -19 4
-12 6 6 9 20 7 32 -2 15 -7 18 -18 11z"/>
<path d="M2139 2078 c-5 -18 -6 -38 -1 -34 7 8 12 36 6 36 -2 0 -4 -1 -5 -2z"/>
<path d="M3886 2051 c-4 -5 3 -7 14 -4 23 6 26 13 6 13 -8 0 -17 -4 -20 -9z"/>
<path d="M2150 2029 c0 -5 5 -7 10 -4 6 3 10 8 10 11 0 2 -4 4 -10 4 -5 0 -10
-5 -10 -11z"/>
<path d="M3845 2000 c-8 -24 -3 -31 38 -48 18 -8 27 -8 27 -1 0 6 -9 13 -19
16 -11 3 -17 11 -15 17 3 7 -2 18 -10 25 -12 10 -16 8 -21 -9z"/>
<path d="M1870 1919 c-8 -5 -10 -9 -5 -10 6 0 3 -3 -6 -7 -15 -6 -15 -9 -2
-21 12 -11 15 -10 20 8 3 11 9 18 14 15 5 -3 9 -1 9 5 0 15 -15 21 -30 10z"/>
<path d="M4198 1918 c6 -6 18 -8 28 -6 14 3 12 5 -9 10 -19 3 -25 2 -19 -4z"/>
<path d="M4185 1891 c-6 -10 0 -15 16 -13 4 1 5 -8 2 -18 -4 -16 -2 -19 11
-14 9 3 16 10 16 16 0 5 4 7 9 3 5 -3 12 -1 15 4 3 5 -2 11 -12 14 -9 2 -24 8
-33 12 -10 3 -20 2 -24 -4z"/>
<path d="M1910 1790 c-13 -8 -12 -10 3 -10 9 0 17 5 17 10 0 12 -1 12 -20 0z"/>
<path d="M1940 1748 c0 -4 4 -8 9 -8 6 0 12 4 15 8 3 5 -1 9 -9 9 -8 0 -15 -4
-15 -9z"/>
<path d="M1835 1720 c-3 -5 -1 -10 4 -10 6 0 11 5 11 10 0 6 -2 10 -4 10 -3 0
-8 -4 -11 -10z"/>
<path d="M1935 1720 c-3 -5 -2 -10 4 -10 5 0 13 5 16 10 3 6 2 10 -4 10 -5 0
-13 -4 -16 -10z"/>
<path d="M2073 1713 c9 -2 25 -2 35 0 9 3 1 5 -18 5 -19 0 -27 -2 -17 -5z"/>
<path d="M3986 1711 c-3 -5 1 -11 9 -14 9 -4 12 -1 8 9 -6 16 -10 17 -17 5z"/>
<path d="M1979 1663 c-13 -16 -12 -17 4 -4 9 7 17 15 17 17 0 8 -8 3 -21 -13z"/>
<path d="M2127 1674 c-3 -3 -3 -12 0 -20 3 -8 0 -14 -6 -14 -6 0 -11 -8 -11
-17 0 -15 2 -16 10 -3 8 13 10 13 10 -2 0 -9 6 -18 13 -21 7 -2 8 -8 3 -13 -5
-5 -11 -4 -13 4 -3 6 -12 12 -21 12 -12 0 -10 -5 8 -22 16 -15 25 -18 28 -10
2 7 8 9 14 6 12 -8 0 38 -13 46 -4 3 -4 12 1 19 14 23 -5 53 -23 35z"/>
<path d="M2068 1619 c-2 -5 -11 -11 -20 -13 -26 -3 -34 -16 -10 -16 11 0 24 5
27 10 4 6 11 8 16 5 5 -4 9 1 9 9 0 18 -16 22 -22 5z"/>
<path d="M3956 1563 c-3 -6 2 -14 10 -17 21 -8 39 -8 31 1 -4 3 -2 12 3 19 8
9 5 12 -15 10 -13 0 -27 -6 -29 -13z"/>
<path d="M3463 1552 c-7 -13 -7 -21 2 -29 7 -7 16 -9 19 -6 3 4 6 -1 6 -11 0
-11 -5 -15 -12 -10 -7 4 3 -9 21 -29 19 -21 36 -37 37 -37 1 0 -7 17 -17 37
-15 30 -16 39 -6 43 9 4 6 13 -13 32 -24 24 -27 25 -37 10z"/>
<path d="M2330 1551 c0 -11 31 -24 39 -16 3 3 -1 10 -9 15 -19 12 -30 12 -30
1z"/>
<path d="M2299 1533 c-13 -16 -12 -17 4 -4 9 7 17 15 17 17 0 8 -8 3 -21 -13z"/>
<path d="M2385 1521 c-3 -5 -2 -12 3 -15 5 -3 9 1 9 9 0 17 -3 19 -12 6z"/>
<path d="M3736 1522 c-3 -5 1 -9 9 -9 8 0 12 4 9 9 -3 4 -7 8 -9 8 -2 0 -6 -4
-9 -8z"/>
<path d="M2361 1474 c6 -8 7 -14 0 -18 -5 -4 -12 -2 -16 4 -10 16 -28 12 -21
-5 3 -8 2 -15 -2 -15 -5 0 -17 -7 -28 -15 -16 -12 -12 -12 21 1 63 25 99 65
56 61 -14 -1 -17 -5 -10 -13z"/>
<path d="M3666 1471 c-3 -5 1 -12 10 -15 8 -3 13 -2 9 3 -3 5 1 12 7 14 8 4 7
6 -4 6 -9 1 -19 -3 -22 -8z"/>
<path d="M3360 1435 c1 -5 10 -21 21 -34 14 -17 23 -21 30 -14 8 8 4 15 -12
24 -13 6 -27 17 -31 23 -5 6 -8 7 -8 1z"/>
<path d="M3615 1410 c-3 -5 -2 -10 4 -10 5 0 13 5 16 10 3 6 2 10 -4 10 -5 0
-13 -4 -16 -10z"/>
<path d="M3056 1401 c-7 -11 4 -42 21 -59 11 -11 13 -11 13 2 0 9 -5 16 -10
16 -6 0 -8 11 -4 25 6 24 -8 35 -20 16z"/>
<path d="M3576 1368 c-9 -12 -13 -24 -9 -27 3 -3 8 0 10 7 3 7 11 19 20 27 8
8 10 15 4 15 -5 0 -17 -10 -25 -22z"/>
<path d="M3707 1383 c-10 -10 -8 -25 2 -19 5 4 11 1 13 -6 3 -8 6 -9 11 -1 8
12 -16 36 -26 26z"/>
<path d="M2305 1369 c-4 -6 -5 -12 -2 -15 2 -3 7 2 10 11 7 17 1 20 -8 4z"/>
<path d="M2995 1313 c-22 -30 -39 -60 -37 -65 1 -5 -1 -7 -6 -4 -5 3 -29 -33
-53 -79 -42 -83 -43 -85 -24 -99 18 -13 22 -13 37 7 14 19 15 23 2 30 -8 5
-12 13 -9 18 4 5 11 7 16 4 5 -4 9 -3 10 2 0 4 3 17 6 28 3 11 5 32 6 47 0 23
2 25 14 12 8 -8 20 -14 26 -14 7 0 4 7 -6 14 -15 12 -16 14 -2 20 8 3 15 9 14
13 -5 31 45 87 70 78 11 -3 11 -1 -3 9 -10 8 -15 19 -11 25 3 6 3 11 -2 11 -4
0 -26 -26 -48 -57z"/>
<path d="M3290 1362 c0 -16 28 -34 34 -23 4 6 -3 15 -14 21 -11 6 -20 7 -20 2z"/>
<path d="M3702 1328 c-14 -14 -16 -28 -3 -28 5 0 11 9 14 20 6 23 5 24 -11 8z"/>
<path d="M3746 1317 c3 -10 9 -15 12 -12 3 3 0 11 -7 18 -10 9 -11 8 -5 -6z"/>
<path d="M2908 1293 c22 -9 -18 -63 -48 -64 l-25 -1 25 -7 c16 -5 24 -14 23
-25 -1 -13 2 -15 10 -7 5 5 11 18 12 28 1 10 7 28 14 41 13 24 7 43 -12 41 -9
0 -8 -2 1 -6z"/>
<path d="M3252 1284 c1 -9 11 -18 21 -20 23 -3 22 8 -4 24 -18 12 -20 11 -17
-4z"/>
<path d="M3363 1287 c3 -10 2 -17 -3 -17 -6 0 -10 -7 -10 -15 0 -8 -8 -15 -17
-16 -11 0 -13 -3 -5 -6 6 -2 12 -11 12 -19 0 -8 -6 -14 -12 -14 -7 0 2 -13 20
-28 l34 -28 -41 -44 c-23 -25 -41 -51 -41 -59 0 -11 -3 -11 -15 -1 -9 7 -14
19 -11 27 3 8 2 12 -3 9 -5 -3 -11 3 -14 15 -4 16 -3 18 9 8 7 -6 20 -9 28 -6
12 5 12 12 4 41 -13 43 -20 44 -46 12 l-19 -25 -22 47 c-21 44 -71 95 -71 72
0 -5 5 -10 10 -10 6 0 10 -7 10 -15 0 -8 4 -15 10 -15 5 0 12 -11 16 -25 3
-14 10 -22 15 -19 5 3 9 0 9 -5 0 -14 -6 -14 -41 4 -34 18 -51 12 -42 -13 6
-16 5 -16 -14 1 -24 21 -39 22 -47 2 -4 -11 2 -15 23 -15 16 0 36 -9 47 -21
18 -20 18 -20 -11 -14 -17 4 -36 8 -42 11 -7 2 -13 -2 -13 -10 0 -7 -11 -23
-24 -35 -24 -23 -24 -24 -8 -49 l17 -26 -25 17 c-34 24 -62 21 -90 -8 -26 -28
-42 -33 -34 -10 5 13 2 14 -19 6 -14 -5 -34 -7 -45 -5 -12 4 -22 0 -26 -11 -3
-10 -2 -14 5 -10 6 4 26 4 45 0 28 -5 34 -10 29 -24 -3 -12 4 -30 21 -50 25
-31 22 -43 -6 -18 -8 6 -12 8 -8 4 3 -5 -11 -24 -31 -43 -33 -33 -34 -37 -18
-48 9 -7 17 -19 17 -25 0 -7 4 -10 9 -7 5 3 14 -1 21 -9 9 -10 9 -15 1 -15 -6
0 -11 5 -11 12 0 6 -3 8 -6 5 -4 -4 -2 -13 5 -21 9 -11 8 -15 -4 -20 -10 -3
-15 1 -15 12 0 10 -6 27 -14 38 -14 18 -16 18 -32 2 -17 -17 -16 -20 24 -58
23 -23 42 -47 42 -54 0 -14 -45 -56 -61 -56 -5 0 -7 6 -3 13 5 8 2 8 -9 -2
-15 -12 -21 -9 -18 12 0 4 -4 7 -10 7 -5 0 -8 4 -5 8 3 5 -4 16 -15 25 -20 18
-28 63 -7 51 7 -5 8 -3 3 5 -4 7 -15 11 -25 8 -21 -5 -33 15 -24 38 5 11 2 13
-10 9 -19 -7 -20 0 -6 27 14 25 5 39 -21 32 -12 -3 -18 -11 -15 -19 4 -9 -2
-14 -17 -14 -12 0 -17 4 -12 8 19 14 15 30 -7 24 -22 -5 -22 -6 -3 41 9 21
-33 14 -49 -8 -13 -18 -15 -18 -31 -2 -9 9 -25 22 -36 28 -11 5 -24 21 -29 35
-5 13 -14 24 -20 24 -20 0 -10 -19 35 -64 25 -26 45 -48 45 -50 0 -4 -27 0
-40 4 -3 1 -19 3 -36 4 -22 1 -30 -3 -26 -12 3 -9 14 -11 33 -7 18 4 29 2 29
-4 0 -6 -7 -11 -15 -11 -9 0 -15 -9 -15 -21 0 -18 -4 -20 -30 -14 -23 5 -30 3
-30 -9 0 -9 4 -16 10 -16 5 0 7 -7 4 -15 -6 -15 -31 -19 -57 -9 -21 8 -9 42
17 47 15 3 13 5 -9 6 -36 2 -67 20 -47 28 18 7 15 26 -4 19 -9 -4 -22 -2 -29
4 -9 8 -17 6 -28 -5 -9 -8 -20 -15 -26 -15 -6 0 -11 -7 -11 -15 0 -8 -9 -19
-20 -25 -14 -7 -20 -7 -20 0 0 5 -8 10 -17 10 -17 -1 -17 -2 1 -15 10 -7 16
-18 13 -22 -3 -5 9 -10 26 -11 17 -2 35 -9 40 -17 4 -8 14 -12 22 -9 9 4 15 0
15 -10 0 -9 7 -16 15 -16 9 0 20 -10 25 -22 6 -18 4 -27 -12 -40 -11 -10 -16
-18 -12 -18 5 0 1 -7 -10 -15 -12 -9 -17 -22 -13 -35 3 -13 0 -20 -9 -20 -8 0
-14 9 -14 20 0 22 -10 26 -27 9 -6 -6 -21 -9 -34 -7 -19 2 -23 8 -21 27 3 30
11 39 20 26 4 -6 25 -11 47 -12 22 -1 29 1 16 4 -19 4 -21 7 -10 14 10 6 4 9
-21 10 l-35 1 30 8 30 8 -32 1 c-27 1 -32 5 -30 22 3 30 -21 35 -33 7 -9 -21
-10 -20 -7 10 3 27 0 32 -17 32 -16 0 -18 2 -7 9 11 7 7 10 -15 13 -17 2 -29
9 -29 17 0 18 -53 33 -73 22 -10 -6 -11 -10 -3 -15 16 -10 14 -26 -4 -26 -8 0
-15 9 -15 20 0 29 -17 25 -22 -5 -3 -14 -1 -25 6 -25 6 0 5 -4 -3 -9 -12 -8
-12 -12 -2 -25 8 -9 19 -16 25 -16 6 0 4 5 -4 11 -13 9 -13 10 0 6 8 -2 15
-11 15 -19 0 -20 114 -150 126 -142 5 3 6 -1 3 -9 -3 -8 3 -21 13 -28 10 -8
29 -29 42 -47 38 -54 56 -58 316 -71 132 -7 298 -16 368 -21 136 -9 165 -6
147 15 -7 9 -3 15 15 23 26 12 35 34 13 31 -38 -5 -50 1 -45 22 7 28 -20 59
-33 38 -7 -11 -10 -10 -16 4 -3 9 -12 17 -19 17 -7 0 -18 7 -25 15 -9 11 -7
19 14 42 21 23 23 30 12 43 -33 39 -24 40 13 2 34 -35 45 -41 57 -32 7 7 11
17 7 24 -4 8 -2 7 7 -1 7 -6 19 -9 27 -6 13 5 14 0 8 -28 l-7 -34 20 20 c36
34 50 44 55 38 3 -3 3 -11 1 -18 -3 -8 3 -12 18 -11 15 1 23 -5 23 -16 0 -9 3
-19 6 -23 7 -6 225 262 235 289 3 7 -1 20 -8 27 -17 17 -16 91 1 97 6 2 9 8 6
13 -4 5 1 6 9 3 9 -3 16 -2 16 4 0 6 -5 12 -11 14 -6 2 -2 13 9 26 10 12 22
19 26 15 3 -3 6 4 6 16 0 12 6 24 14 27 8 3 13 16 12 29 0 13 -4 21 -8 18 -15
-9 -8 15 13 41 18 23 19 27 4 32 -12 5 -13 9 -4 21 9 11 9 17 -1 26 -10 9 -11
9 -6 0 5 -9 -1 -13 -19 -13 -32 0 -68 -18 -60 -30 3 -4 -4 -6 -15 -3 -11 3
-20 12 -20 20 0 8 -3 12 -7 10 -5 -3 -9 8 -10 24 -1 16 2 29 8 29 6 0 7 5 4
10 -3 6 -1 10 4 10 15 0 14 27 -1 36 -8 5 -9 2 -5 -9z m107 -121 c0 -2 -7 -6
-15 -10 -8 -3 -15 -1 -15 4 0 6 7 10 15 10 8 0 15 -2 15 -4z m-193 -35 c1 -14
-3 -18 -13 -14 -17 6 -18 20 -1 26 6 3 12 6 12 6 1 1 1 -8 2 -18z m-114 -18
c10 -10 26 -18 35 -18 10 0 17 -7 17 -16 0 -9 6 -24 14 -33 28 -33 1 -14 -48
34 -47 47 -61 71 -18 33z m-94 -85 c7 -13 30 -36 51 -53 46 -36 69 -68 42 -58
-9 4 -21 12 -25 20 -4 7 -15 13 -22 13 -8 0 -15 5 -15 11 0 6 -14 29 -31 50
-17 21 -27 39 -22 39 6 0 15 -10 22 -22z m124 -8 c17 -14 24 -26 20 -37 -5
-12 -3 -14 8 -8 8 5 5 -1 -5 -13 -11 -12 -22 -20 -25 -17 -3 4 1 10 9 15 10 7
11 10 3 10 -7 0 -15 -1 -16 -2 -2 -2 -11 3 -20 11 -13 10 -14 17 -5 35 10 19
10 20 -5 7 -16 -13 -25 -2 -10 12 10 11 19 8 46 -13z m207 10 c8 -5 12 -11 9
-14 -3 -3 -14 1 -25 9 -21 16 -8 20 16 5z m-432 -27 c-5 -10 49 -62 56 -55 4
3 6 0 6 -6 0 -17 -15 -15 -30 3 -7 8 -20 15 -30 15 -12 0 -17 7 -15 23 3 26 3
27 11 27 3 0 4 -3 2 -7z m392 -27 c0 -21 -21 -31 -31 -15 -14 22 -11 29 11 29
11 0 20 -6 20 -14z m-424 -5 c-3 -5 4 -21 16 -37 13 -15 16 -24 8 -20 -8 5 -4
-3 10 -16 14 -14 30 -23 35 -20 6 3 5 -1 -1 -8 -19 -20 -49 -3 -72 41 -17 32
-20 45 -11 55 13 15 23 19 15 5z m202 -64 l22 -24 -21 -19 c-22 -19 -22 -19
-10 4 10 20 9 22 -10 22 -17 0 -19 3 -10 13 6 8 8 17 4 20 -3 4 -4 7 -1 7 2 0
14 -10 26 -23z m-85 -37 c3 -11 0 -23 -6 -27 -7 -3 -9 -2 -4 2 4 5 0 17 -10
27 -14 16 -14 18 -1 18 9 0 18 -9 21 -20z m-118 -87 c-3 -13 -1 -23 5 -23 5 0
10 8 10 17 0 12 3 14 10 7 6 -6 8 -18 4 -27 -5 -14 -10 -15 -27 -5 -24 12 -57
47 -57 59 0 4 3 15 6 24 11 27 57 -22 49 -52z m35 46 c0 -5 5 -9 11 -9 12 0
38 -29 39 -43 0 -13 -48 23 -64 48 -14 21 -14 24 -1 19 8 -4 15 -10 15 -15z
m350 -39 c0 -17 -2 -19 -14 -8 -10 9 -11 15 -2 20 16 11 16 10 16 -12z m-270
-34 c0 -3 -4 -8 -10 -11 -5 -3 -10 -1 -10 4 0 6 5 11 10 11 6 0 10 -2 10 -4z
m234 -20 c-3 -9 -10 -13 -15 -10 -5 3 -9 0 -9 -5 0 -6 -5 -11 -10 -11 -6 0 -5
8 2 19 7 11 16 17 20 15 4 -3 8 0 8 7 0 7 2 10 5 7 3 -3 3 -13 -1 -22z m-1051
7 c-7 -2 -19 -2 -25 0 -7 3 -2 5 12 5 14 0 19 -2 13 -5z m75 -26 c6 -12 11
-16 11 -9 1 6 6 12 11 12 6 0 5 -8 -2 -19 -12 -19 -12 -19 -29 0 -9 10 -21 19
-28 19 -19 0 -12 16 8 17 10 1 23 -8 29 -20z m916 -3 c3 -8 2 -12 -4 -9 -6 3
-10 10 -10 16 0 14 7 11 14 -7z m-104 -29 c14 -19 14 -19 -2 -6 -10 7 -18 18
-18 24 0 6 1 8 3 6 1 -2 9 -13 17 -24z m-757 -5 c3 -11 3 -20 1 -20 -2 0 -8 9
-14 20 -6 11 -7 20 -2 20 6 0 12 -9 15 -20z m27 16 c0 -3 -4 -8 -10 -11 -5 -3
-10 -1 -10 4 0 6 5 11 10 11 6 0 10 -2 10 -4z m580 -6 c0 -5 -7 -7 -15 -4 -8
4 -15 8 -15 10 0 2 7 4 15 4 8 0 15 -4 15 -10z m227 -10 c-1 -11 -5 -20 -9
-20 -10 0 -10 4 -2 24 8 22 13 20 11 -4z m40 -5 c-13 -28 -30 -34 -20 -7 5 14
21 31 30 32 0 0 -4 -11 -10 -25z m-1140 -31 c-9 -9 -28 6 -21 18 4 6 10 6 17
-1 6 -6 8 -13 4 -17z m67 -27 c3 4 6 1 6 -5 0 -18 -37 -14 -44 4 -12 30 -5 39
13 17 10 -12 21 -19 25 -16z m806 29 c0 -2 -8 -10 -17 -17 -16 -13 -17 -12 -4
4 13 16 21 21 21 13z m230 -3 c0 -17 -18 -35 -29 -29 -8 5 -7 11 2 21 13 16
27 19 27 8z m-230 -203 c0 -5 -2 -10 -4 -10 -3 0 -8 5 -11 10 -3 6 -1 10 4 10
6 0 11 -4 11 -10z"/>
<path d="M3176 1004 c-4 -9 -4 -19 -1 -22 2 -3 7 3 11 12 4 9 4 19 1 22 -2 3
-7 -3 -11 -12z"/>
<path d="M3550 1287 c0 -7 5 -18 12 -25 9 -9 7 -17 -10 -32 -18 -17 -20 -25
-11 -42 6 -11 9 -29 6 -39 -3 -10 -1 -22 4 -25 5 -3 6 -11 3 -17 -4 -7 -1 -6
7 2 10 10 11 15 2 18 -13 5 19 43 36 43 5 0 13 9 16 20 3 11 15 20 25 20 18 0
50 40 33 40 -4 0 -1 4 7 10 8 5 12 12 8 15 -3 3 -13 -1 -21 -10 -9 -8 -18 -15
-21 -15 -9 0 -54 -49 -50 -53 3 -3 -6 -7 -20 -9 -22 -4 -24 -3 -16 13 6 10 14
20 19 23 5 4 7 15 4 26 -4 13 1 26 13 35 18 13 17 14 -13 15 -21 0 -33 -5 -33
-13z"/>
<path d="M3008 1253 c7 -3 16 -2 19 1 4 3 -2 6 -13 5 -11 0 -14 -3 -6 -6z"/>
<path d="M3457 1223 c-4 -3 -7 -11 -7 -17 0 -6 5 -5 12 2 6 6 9 14 7 17 -3 3
-9 2 -12 -2z"/>
<path d="M3490 1226 c0 -2 7 -9 15 -16 9 -7 15 -8 15 -2 0 5 -7 12 -15 16 -8
3 -15 4 -15 2z"/>
<path d="M2845 1200 c3 -5 12 -7 20 -3 21 7 19 13 -6 13 -11 0 -18 -4 -14 -10z"/>
<path d="M3024 1185 c-4 -8 -11 -12 -17 -8 -6 3 -7 1 -3 -5 12 -19 32 -14 32
8 0 24 -4 26 -12 5z"/>
<path d="M3245 1179 c-11 -17 1 -21 15 -4 8 9 8 15 2 15 -6 0 -14 -5 -17 -11z"/>
<path d="M2987 1130 c-9 -11 -13 -20 -8 -20 11 0 35 29 29 35 -2 2 -12 -4 -21
-15z"/>
<path d="M3030 1139 c0 -5 5 -7 10 -4 6 3 10 8 10 11 0 2 -4 4 -10 4 -5 0 -10
-5 -10 -11z"/>
<path d="M3580 1109 c0 -5 5 -7 10 -4 6 3 10 8 10 11 0 2 -4 4 -10 4 -5 0 -10
-5 -10 -11z"/>
<path d="M3526 1065 c-28 -32 -21 -46 12 -25 15 10 15 11 -3 6 -19 -6 -19 -5
-1 8 10 8 16 19 15 24 -2 5 -13 -1 -23 -13z"/>
<path d="M3581 1085 c0 -5 3 -16 8 -23 6 -11 12 -10 26 4 13 13 14 19 5 22 -7
3 -16 -1 -20 -8 -6 -9 -9 -9 -13 1 -3 8 -6 10 -6 4z"/>
<path d="M2912 1030 c-7 -11 -9 -20 -4 -20 10 0 32 22 32 32 0 15 -15 8 -28
-12z"/>
<path d="M3556 1034 c-8 -21 -1 -28 18 -21 9 4 13 13 10 22 -8 20 -20 19 -28
-1z"/>
<path d="M2848 933 c6 -2 18 -2 25 0 6 3 1 5 -13 5 -14 0 -19 -2 -12 -5z"/>
<path d="M2795 910 c-3 -5 -1 -10 4 -10 6 0 11 5 11 10 0 6 -2 10 -4 10 -3 0
-8 -4 -11 -10z"/>
<path d="M1987 873 c-4 -3 -7 -11 -7 -17 0 -6 5 -5 12 2 6 6 9 14 7 17 -3 3
-9 2 -12 -2z"/>
<path d="M2800 872 c0 -6 7 -18 16 -26 8 -9 11 -16 5 -16 -5 0 -13 5 -16 10
-9 14 -25 2 -19 -14 5 -12 51 -17 57 -6 1 3 -8 18 -20 34 -13 16 -23 24 -23
18z"/>
<path d="M2853 865 c0 -8 4 -15 9 -15 4 0 8 4 8 9 0 6 -4 12 -8 15 -5 3 -9 -1
-9 -9z"/>
<path d="M2370 830 c-9 -6 -10 -10 -3 -10 6 0 15 5 18 10 8 12 4 12 -15 0z"/>
<path d="M2396 823 c-7 -7 13 -33 25 -33 5 0 9 6 9 14 0 15 -24 28 -34 19z"/>
<path d="M1870 800 c0 -5 5 -10 11 -10 5 0 7 5 4 10 -3 6 -8 10 -11 10 -2 0
-4 -4 -4 -10z"/>
<path d="M2108 803 c7 -3 16 -2 19 1 4 3 -2 6 -13 5 -11 0 -14 -3 -6 -6z"/>
<path d="M1941 724 c0 -11 3 -14 6 -6 3 7 2 16 -1 19 -3 4 -6 -2 -5 -13z"/>
<path d="M2210 660 c0 -5 11 -10 25 -10 14 0 25 5 25 10 0 6 -11 10 -25 10
-14 0 -25 -4 -25 -10z"/>
<path d="M3105 530 c-4 -6 -12 -10 -18 -9 -20 3 -47 -12 -47 -28 0 -10 6 -12
19 -8 16 5 19 1 17 -24 -1 -16 1 -28 5 -25 4 2 10 -4 13 -13 10 -26 66 44 63
79 0 15 -3 25 -5 23 -3 -2 -13 0 -23 5 -12 7 -20 7 -24 0z"/>
</g>
</svg>
