<?xml version="1.0" standalone="no"?>
<!DOCTYPE svg PUBLIC "-//W3C//DTD SVG 20010904//EN"
 "http://www.w3.org/TR/2001/REC-SVG-20010904/DTD/svg10.dtd">
<svg version="1.0" xmlns="http://www.w3.org/2000/svg"
 width="447.000000pt" height="113.000000pt" viewBox="0 0 447.000000 113.000000"
 preserveAspectRatio="xMidYMid meet">

<g transform="translate(0.000000,113.000000) scale(0.100000,-0.100000)"
fill="#000000" stroke="none">
<path d="M2672 1088 c-153 -165 -293 -333 -290 -347 2 -12 17 -17 66 -19 l62
-3 0 -247 c1 -259 7 -317 43 -369 42 -62 86 -78 235 -81 l132 -4 0 99 0 98
-87 0 -88 0 -3 253 -2 252 90 0 90 0 0 100 0 100 -90 0 -89 0 -3 102 c-2 65
-7 103 -14 105 -7 2 -30 -15 -52 -39z"/>
<path d="M2030 931 c-69 -14 -137 -68 -173 -136 -16 -30 -16 -29 -17 48 l0 77
-110 0 -110 0 0 -450 0 -450 115 0 115 0 0 350 0 350 99 0 c82 0 103 -3 122
-19 l24 -19 3 -331 3 -331 110 0 109 0 0 369 c0 389 -2 408 -48 470 -41 56
-154 89 -242 72z"/>
<path d="M3365 933 c-250 -36 -409 -218 -407 -468 2 -248 147 -420 385 -457
208 -32 417 63 504 229 58 109 63 103 -76 103 l-120 0 -15 -27 c-64 -123 -257
-152 -359 -55 -33 31 -61 83 -72 129 l-7 33 348 0 347 0 -6 93 c-14 245 -171
402 -422 420 -38 2 -83 3 -100 0z m166 -208 c55 -28 119 -98 119 -130 0 -3
-99 -5 -220 -5 -121 0 -220 3 -220 6 0 12 24 51 49 77 67 73 186 95 272 52z"/>
<path d="M4375 931 c-67 -17 -87 -36 -121 -118 l-24 -58 0 83 0 82 -115 0
-115 0 0 -450 0 -450 120 0 120 0 2 343 3 342 108 3 107 3 0 114 0 115 -27 -1
c-16 -1 -41 -4 -58 -8z"/>
<path d="M780 680 c0 -132 -4 -240 -9 -240 -4 0 -46 97 -91 215 -49 126 -88
214 -94 212 -77 -31 -96 -40 -96 -46 0 -3 38 -105 85 -225 47 -121 83 -221 81
-224 -3 -2 -71 79 -152 181 l-148 185 -43 -31 c-24 -17 -43 -32 -43 -35 0 -3
70 -92 155 -198 85 -107 150 -194 144 -194 -6 0 -93 63 -195 140 -102 77 -187
140 -190 140 -9 0 -43 -44 -44 -55 0 -6 86 -75 190 -154 105 -79 190 -147 190
-151 0 -4 -98 35 -217 87 -203 90 -217 94 -230 77 -7 -10 -13 -23 -13 -29 0
-7 96 -54 212 -105 117 -51 217 -97 223 -102 16 -14 -12 -9 -240 41 -215 46
-220 47 -228 28 -4 -11 -4 -24 0 -28 4 -3 112 -29 238 -55 l230 -49 -242 -3
-243 -2 0 -24 0 -24 417 -4 c230 -2 441 -1 468 2 l50 5 3 453 2 452 -85 0 -85
0 0 -240z"/>
<path d="M1220 470 l0 -450 115 0 115 0 0 450 0 450 -115 0 -115 0 0 -450z"/>
</g>
</svg>
