<?xml version="1.0" standalone="no"?>
<!DOCTYPE svg PUBLIC "-//W3C//DTD SVG 20010904//EN"
 "http://www.w3.org/TR/2001/REC-SVG-20010904/DTD/svg10.dtd">
<svg version="1.0" xmlns="http://www.w3.org/2000/svg"
 width="400.000000pt" height="213.000000pt" viewBox="0 0 400.000000 213.000000"
 preserveAspectRatio="xMidYMid meet">

<g transform="translate(0.000000,213.000000) scale(0.100000,-0.100000)"
fill="#000000" stroke="none">
<path d="M1680 1899 c-321 -30 -422 -70 -455 -182 -81 -271 -84 -983 -6 -1275
28 -103 87 -141 261 -171 319 -55 792 -51 1089 9 163 33 198 73 231 262 57
337 50 850 -17 1142 -13 57 -22 76 -57 111 -44 44 -88 59 -241 84 -174 29
-598 40 -805 20z m-225 -724 c31 -30 32 -62 3 -92 -31 -33 -80 -31 -108 4 -55
70 42 151 105 88z m1125 -56 l0 -49 -105 0 -105 0 0 35 c0 19 1 35 3 36 98 19
194 35 200 32 4 -2 7 -26 7 -54z m-878 -41 l3 -63 53 -3 52 -3 0 -45 0 -44
-55 0 -55 0 0 -100 c0 -88 2 -102 21 -121 16 -16 29 -20 50 -15 29 5 29 5 29
-44 l0 -50 -70 0 c-66 0 -73 2 -108 34 l-37 34 -3 131 -4 131 -29 0 c-28 0
-29 2 -29 44 0 41 2 45 28 48 25 3 27 7 30 55 l3 52 42 9 c77 18 76 19 79 -50z
m445 -84 c15 -11 38 -40 51 -64 20 -40 22 -58 22 -192 l0 -148 -55 0 c-47 0
-57 3 -63 21 -7 19 -9 19 -21 5 -23 -27 -88 -39 -137 -26 -62 18 -86 48 -92
115 -4 53 -3 56 34 94 40 40 103 61 179 61 19 0 35 3 35 8 0 19 -33 51 -59 57
-28 6 -116 -6 -153 -20 -16 -6 -18 -1 -18 44 0 48 1 51 33 60 17 6 73 9 124 8
75 -2 97 -6 120 -23z m-677 -194 l0 -210 -60 0 -60 0 0 210 0 210 60 0 60 0 0
-210z m932 64 c3 -139 4 -147 27 -165 31 -25 47 -24 76 6 24 23 25 29 25 165
l0 140 60 0 60 0 0 -210 0 -210 -55 0 c-48 0 -55 2 -55 20 0 25 -4 25 -40 -2
-40 -29 -119 -30 -158 -2 -53 40 -62 73 -62 247 l0 157 59 0 60 0 3 -146z"/>
<path d="M2000 767 c-32 -16 -40 -65 -14 -84 45 -33 114 8 114 67 0 28 -2 30
-37 30 -21 0 -49 -6 -63 -13z"/>
</g>
</svg>
