<?xml version="1.0" standalone="no"?>
<!DOCTYPE svg PUBLIC "-//W3C//DTD SVG 20010904//EN"
 "http://www.w3.org/TR/2001/REC-SVG-20010904/DTD/svg10.dtd">
<svg version="1.0" xmlns="http://www.w3.org/2000/svg"
 width="500.000000pt" height="500.000000pt" viewBox="0 0 500.000000 500.000000"
 preserveAspectRatio="xMidYMid meet">

<g transform="translate(0.000000,500.000000) scale(0.100000,-0.100000)"
fill="#000000" stroke="none">
<path d="M2487 3843 c-36 -81 -46 -134 -47 -240 0 -146 23 -203 216 -533 201
-345 229 -400 249 -481 19 -84 19 -211 -1 -280 -23 -80 -65 -169 -79 -169 -7
0 -18 20 -25 44 -14 52 -106 223 -247 461 -189 321 -327 569 -344 617 -9 27
-19 51 -22 54 -10 10 -48 -75 -68 -153 -24 -96 -24 -170 0 -265 22 -86 44
-133 144 -303 39 -66 84 -145 102 -175 17 -30 53 -91 79 -135 145 -237 173
-373 120 -580 -17 -66 -60 -149 -74 -140 -5 3 -16 27 -24 53 -18 53 -102 204
-321 582 -171 294 -199 354 -215 468 -8 54 -17 82 -25 82 -27 0 -221 -73 -299
-112 -471 -237 -561 -620 -214 -907 364 -301 1072 -412 1669 -261 279 71 466
166 615 314 247 247 192 553 -139 778 -103 70 -259 138 -444 193 -7 2 -15 17
-18 32 -29 150 -45 187 -187 432 -218 376 -326 569 -343 616 -10 28 -21 54
-25 58 -4 4 -19 -18 -33 -50z"/>
</g>
</svg>
